<?xml version="1.0" encoding="UTF-8"?>
<svg width="376px" height="259px" viewBox="0 0 376 259" version="1.1" xmlns="http://www.w3.org/2000/svg" xmlns:xlink="http://www.w3.org/1999/xlink">
    <!-- Generator: Sketch 64 (93537) - https://sketch.com -->
    <title>01</title>
    <desc>Created with Sketch.</desc>
    <g id="Landig-Page" stroke="none" stroke-width="1" fill="none" fill-rule="evenodd" fill-opacity="0.08">
        <g id="Serigrafía" transform="translate(-540.000000, -83.000000)" fill="#000000">
            <g id="Cursos" transform="translate(172.000000, 83.000000)">
                <g id="emarts-emarts-68775-unsplash">
                    <path d="M484.681131,0 C559.328167,0 601,46.0044322 601,129.318932 C601,212.633432 559.328167,259 484.681131,259 C409.30957,259 368,212.633432 368,129.318932 C368,46.0044322 409.30957,0 484.681131,0 Z M744,3 L744,257 L660.113109,257 L660.113109,69.3088969 L616,69.3088969 L616,3 L744,3 Z M484.681131,60.8558765 C461.852383,60.8558765 454.242541,77.8816907 454.242541,129.318932 C454.242541,180.756953 461.852383,198.144123 484.681131,198.144123 C507.147617,198.144123 514.757459,180.756953 514.757459,129.318932 C514.757459,77.8816907 507.147617,60.8558765 484.681131,60.8558765 Z" id="01"></path>
                </g>
            </g>
        </g>
    </g>
</svg>