<?xml version="1.0" encoding="UTF-8"?>
<svg width="456px" height="259px" viewBox="0 0 456 259" version="1.1" xmlns="http://www.w3.org/2000/svg" xmlns:xlink="http://www.w3.org/1999/xlink">
    <!-- Generator: Sketch 64 (93537) - https://sketch.com -->
    <title>02</title>
    <desc>Created with Sketch.</desc>
    <g id="Landig-Page" stroke="none" stroke-width="1" fill="none" fill-rule="evenodd" fill-opacity="0.08">
        <g id="Serigrafía" transform="translate(-362.000000, -430.000000)" fill="#000000">
            <g id="Cursos" transform="translate(172.000000, 83.000000)">
                <g id="emarts-emarts-68775-unsplash">
                    <path d="M306.179191,349 C380.1865,349 421.5,394.649821 421.5,477.320717 C421.5,559.990841 380.1865,606 306.179191,606 C231.454346,606 190.5,559.990841 190.5,477.320717 C190.5,394.649821 231.454346,349 306.179191,349 Z M550.819882,347 C602.660244,347 641.900222,374.471213 641.900222,415.678033 C641.900222,444.956052 621.019808,473.149987 592.939837,501.343923 L554.780334,539.659077 L645.5,539.659077 L645.5,604 L448.579533,604 L448.579533,551.587878 L536.060096,460.13788 C546.139628,449.293939 554.420433,436.643193 554.420433,427.967418 C554.420433,419.291644 548.660479,414.593173 537.859598,414.593173 C518.780233,414.593173 493.939366,427.244696 469.459948,447.124995 L438.5,386.761376 C474.500101,361.81969 511.220003,347 550.819882,347 Z M306.179191,409.386538 C283.547095,409.386538 276.002548,426.280055 276.002548,477.320717 C276.002548,528.36138 283.547095,545.613462 306.179191,545.613462 C328.452905,545.613462 335.998225,528.36138 335.998225,477.320717 C335.998225,426.280055 328.452905,409.386538 306.179191,409.386538 Z" id="02"></path>
                </g>
            </g>
        </g>
    </g>
</svg>