<?xml version="1.0" encoding="UTF-8"?>
<svg width="218px" height="218px" viewBox="0 0 218 218" version="1.1" xmlns="http://www.w3.org/2000/svg" xmlns:xlink="http://www.w3.org/1999/xlink">
    <!-- Generator: Sketch 64 (93537) - https://sketch.com -->
    <title>03</title>
    <desc>Created with Sketch.</desc>
    <g id="Landig-Page" stroke="none" stroke-width="1" fill="none" fill-rule="evenodd">
        <g id="Gracias" transform="translate(-531.000000, -204.000000)" fill="#BD10E0">
            <g id="Group-8" transform="translate(417.000000, 204.000000)">
                <g id="Group-6" transform="translate(114.000000, 0.000000)">
                    <path d="M108.9238,0.8989 C168.7508,0.8989 217.4238,49.5709 217.4238,109.3989 C217.4238,169.2259 168.7508,217.8989 108.9238,217.8989 C49.0978,217.8989 0.4238,169.2259 0.4238,109.3989 C0.4238,49.5709 49.0978,0.8989 108.9238,0.8989 Z M108.9238,8.8379 C53.4758,8.8379 8.3628,53.9489 8.3628,109.3989 C8.3628,164.8479 53.4758,209.9589 108.9238,209.9589 C164.3728,209.9589 209.4858,164.8479 209.4858,109.3989 C209.4858,53.9489 164.3728,8.8379 108.9238,8.8379 Z M157.8105,76.7525 C160.2635,79.2085 160.2635,83.1895 157.8105,85.6445 L102.8455,146.8355 C101.5595,148.1275 99.8525,148.7205 98.1645,148.6545 C96.4785,148.7205 94.7715,148.1275 93.4835,146.8355 L63.1135,116.3875 C60.6635,113.9315 60.6635,109.9515 63.1135,107.4985 C65.5665,105.0425 69.5365,105.0425 71.9895,107.4985 L97.9475,133.5225 L148.9345,76.7525 C151.3845,74.2975 155.3595,74.2975 157.8105,76.7525 Z" id="03"></path>
                </g>
            </g>
        </g>
    </g>
</svg>