<?xml version="1.0" encoding="UTF-8"?>
<svg width="80px" height="80px" viewBox="0 0 80 80" version="1.1" xmlns="http://www.w3.org/2000/svg" xmlns:xlink="http://www.w3.org/1999/xlink">
    <!-- Generator: Sketch 59 (86127) - https://sketch.com -->
    <title>Combined Shape</title>
    <desc>Created with Sketch.</desc>
    <g id="Symbols" stroke="none" stroke-width="1" fill="none" fill-rule="evenodd">
        <g id="Academia" fill="#FFFFFF">
            <path d="M75.1975278,18.5613875 L79.164973,16.1954595 L79.9044324,17.4336577 L70.9419886,22.7806707 C81.352682,40.8124843 75.3786156,63.9215321 57.4374775,74.6230631 C39.591078,85.2683711 16.5707747,79.662647 5.58028311,62.156208 L0.835243243,64.9863063 L0.0965045045,63.7481081 L9.83510886,57.9386144 C-0.574069477,39.9069469 5.4008035,16.7985641 23.3401802,6.09794595 C41.1851886,-4.54695617 64.205808,1.057234 75.1975278,18.5613875 Z M26.3218018,11.0983063 C11.1473673,20.1483345 6.0742588,39.6850522 14.836375,54.9544608 L19.5674955,52.132973 L20.306955,53.3711712 L10.5809692,59.173192 C19.9227707,73.9166056 39.3749973,78.6189192 54.452973,69.6248649 C69.6316347,60.5708763 74.7031494,41.0314021 65.941513,25.7637662 L60.432,29.0495135 L59.6932613,27.8113153 L70.1960229,21.5460643 C60.8533591,6.80277454 41.4036899,2.10161986 26.3218018,11.0983063 Z M28.8625,54.016 C29.7655,54.016 30.3115,54.331 30.7805,54.779 L30.7805,54.779 L30.2275,55.416 C29.8355,55.052 29.4155,54.807 28.8555,54.807 C27.9175,54.807 27.2385,55.577 27.2385,56.55 C27.2385,57.509 27.9175,58.293 28.8555,58.293 C29.4575,58.293 29.8425,58.048 30.2625,57.656 L30.2625,57.656 L30.8155,58.216 C30.3045,58.748 29.7445,59.084 28.8275,59.084 C27.3995,59.084 26.3355,57.971 26.3355,56.55 C26.3355,55.157 27.3785,54.016 28.8625,54.016 Z M58.2415,54.065 L60.3975,59 L59.4875,59 L58.9905,57.817 L56.6735,57.817 L56.1695,59 L55.2875,59 L57.4435,54.065 L58.2415,54.065 Z M54.3985,54.1 L54.3985,59 L53.5375,59 L53.5375,54.1 L54.3985,54.1 Z M48.3295,54.1 L49.8205,56.417 L51.3115,54.1 L52.2285,54.1 L52.2285,59 L51.3675,59 L51.3675,55.486 L49.8205,57.796 L49.7925,57.796 L48.2595,55.5 L48.2595,59 L47.4125,59 L47.4125,54.1 L48.3295,54.1 Z M46.3555,54.1 L46.3555,54.87 L43.5835,54.87 L43.5835,56.144 L46.0405,56.144 L46.0405,56.914 L43.5835,56.914 L43.5835,58.23 L46.3905,58.23 L46.3905,59 L42.7225,59 L42.7225,54.1 L46.3555,54.1 Z M39.0755,54.1 C40.6155,54.1 41.6795,55.157 41.6795,56.55 C41.6795,57.929 40.6155,59 39.0755,59 L39.0755,59 L37.2485,59 L37.2485,54.1 Z M34.2525,54.065 L36.4085,59 L35.4985,59 L35.0015,57.817 L32.6845,57.817 L32.1805,59 L31.2985,59 L33.4545,54.065 L34.2525,54.065 Z M23.5565,54.065 L25.7125,59 L24.8025,59 L24.3055,57.817 L21.9885,57.817 L21.4845,59 L20.6025,59 L22.7585,54.065 L23.5565,54.065 Z M39.0755,54.884 L38.1095,54.884 L38.1095,58.216 L39.0755,58.216 C40.1045,58.216 40.7765,57.523 40.7765,56.55 C40.7765,55.591 40.1045,54.884 39.0755,54.884 L39.0755,54.884 Z M57.8285,55.094 L56.9885,57.054 L58.6755,57.054 L57.8285,55.094 Z M23.1435,55.094 L22.3035,57.054 L23.9905,57.054 L23.1435,55.094 Z M33.8395,55.094 L32.9995,57.054 L34.6865,57.054 L33.8395,55.094 Z M31.7835676,25.4087207 L36.3709646,38.4283767 C36.5598734,38.3729295 36.7548262,38.3256833 36.955823,38.2866463 L36.9568288,25.4084324 L43.6638559,25.4084324 C44.275027,25.4084324 44.8278198,25.505009 45.3265586,25.6974414 C45.8231351,25.8891532 46.251964,26.1536577 46.6101622,26.4916757 C46.9676396,26.8296937 47.242955,27.234018 47.4353874,27.7039279 C47.6270991,28.1745586 47.7243964,28.6812252 47.7243964,29.2246486 C47.7243964,29.9396036 47.5557477,30.5723964 47.217009,31.1223063 C46.8782703,31.6722162 46.3903423,32.059964 45.7546667,32.2841081 C46.337009,32.4700541 46.7521441,32.7569009 46.9979099,33.141045 C47.242955,33.5266306 47.3661982,34.1053694 47.3661982,34.8758198 L47.366,38.586 L49.6144865,38.5863063 L52.0022342,48.2778378 L54.381,38.623 L51.9628108,38.6232793 L51.9628108,27.7173333 L47.9837117,27.7173333 L47.9837117,25.429045 L58.7303784,25.429045 L58.7303784,27.7173333 L54.7296577,27.7173333 L54.729,38.586 L58.371964,38.5863063 L58.371964,51.8007207 L55.7845766,51.8007207 L55.7845766,42.7455856 L53.3168288,51.8007207 L50.5701622,51.8007207 L48.1225946,42.7845045 L48.1225946,51.8007207 L45.5553874,51.8007207 L45.555,38.623 L44.6598919,38.6235676 L44.6598919,35.2203243 C44.6598919,34.5832072 44.5135856,34.1291532 44.2216937,33.8567207 C43.9298018,33.585009 43.3856577,33.4487928 42.5892613,33.4487928 L39.6436757,33.4487928 L39.6446298,38.2253585 C40.1979596,38.3034212 40.7121644,38.4401736 41.1863063,38.6354595 C41.9762162,38.9605045 42.6356757,39.4347387 43.1661261,40.0588829 C43.6972973,40.6815856 44.1016216,41.4412252 44.3812613,42.3370811 C44.6601802,43.2322162 44.7992793,44.2441081 44.7992793,45.372036 C44.7992793,47.6538378 44.258018,49.372036 43.1762162,50.5266306 C42.0944144,51.6805045 40.5326126,52.2578018 38.4900901,52.2578018 C36.4461261,52.2578018 34.8771171,51.661045 33.7837838,50.4668108 C32.6882883,49.2725766 32.1412613,47.5550991 32.1412613,45.3122162 C32.1412613,44.197982 32.2810811,43.1961802 32.5592793,42.3068108 C32.8374775,41.4188829 33.249009,40.665009 33.7931532,40.0487928 C34.3365766,39.4318559 35.0003604,38.9605045 35.7830631,38.6354595 L35.814,38.623 L33.4354595,38.6231351 L32.5987027,35.8973694 L27.723027,35.8973694 L26.9453224,38.1644954 C27.4760899,38.2179743 27.9712218,38.329653 28.4304865,38.4995315 C29.0993153,38.7467387 29.6766126,39.0876396 30.1609369,39.5222342 C30.645982,39.9568288 31.0301261,40.4670991 31.3155315,41.0516036 C31.6009369,41.6368288 31.7760721,42.260973 31.8438198,42.924036 L29.076973,42.924036 C28.8903063,42.168 28.5313874,41.5806126 28.0023784,41.1633153 C27.4719279,40.7452973 26.8737297,40.5362883 26.2106667,40.5362883 C25.0567928,40.5362883 24.2070631,40.9507027 23.6629189,41.7802523 C23.1194955,42.6090811 22.8470631,43.7470991 22.8470631,45.1921441 C22.8470631,46.6652973 23.1158919,47.8098018 23.6535495,48.6256577 C24.1919279,49.4415135 24.996973,49.8501622 26.0708468,49.8501622 C26.8946306,49.8501622 27.5540901,49.6281802 28.0513874,49.1834955 C28.5486847,48.7380901 28.8903063,48.0988108 29.076973,47.2627748 L31.8438198,47.2627748 C31.6975135,48.0188108 31.4661622,48.7027748 31.1461622,49.3125045 C30.8283243,49.922955 30.4268829,50.4461982 29.9418378,50.8843964 C29.4575135,51.3225946 28.8982342,51.6606126 28.2603964,51.8998919 C27.6247207,52.1384505 26.9198559,52.2580901 26.1522883,52.2580901 C25.2881441,52.2580901 24.4823784,52.1117838 23.7328288,51.8198919 C22.9832793,51.5272793 22.3375135,51.0890811 21.7926486,50.5045766 C21.2485045,49.9200721 20.8211171,49.1986306 20.5083243,48.3416937 C20.1976937,47.4847568 20.0412973,46.4843964 20.0412973,45.3427748 C20.0412973,44.2263784 20.184,43.2202523 20.4694054,42.322955 C20.7540901,41.4256577 21.1627387,40.6689009 21.6931892,40.0512432 C22.2236396,39.4335856 22.8708468,38.9586306 23.6333694,38.6263784 L23.898,38.519 L28.5785225,25.4087207 L31.7835676,25.4087207 Z M38.4900901,40.5958198 C37.3225225,40.5958198 36.4266667,41.0008649 35.8025225,41.8102342 C35.1790991,42.6188829 34.8684685,43.8066306 34.8684685,45.372036 C34.8684685,46.9381622 35.1827027,48.0819459 35.8133333,48.8055495 C36.4425225,49.5284324 37.3347748,49.8895135 38.4900901,49.8895135 C38.9816216,49.8895135 39.445045,49.8001441 39.8825225,49.6206847 C40.3207207,49.4419459 40.701982,49.1702342 41.0277477,48.8055495 C41.3520721,48.4401441 41.6072072,47.9723964 41.7931532,47.4015856 C41.9783784,46.8307748 42.0720721,46.1554595 42.0720721,45.372036 C42.0720721,43.8066306 41.7664865,42.6188829 41.1567568,41.8102342 C40.5463063,41.0008649 39.6569369,40.5958198 38.4900901,40.5958198 Z M30.1511351,28.3744865 L30.130955,28.3744865 L28.4394234,33.648 L31.803027,33.648 L30.1511351,28.3744865 Z M43.2061982,27.6974414 L39.6436757,27.6974414 L39.6436757,31.2001441 L43.1067387,31.2001441 C43.8498018,31.2001441 44.373045,31.0358198 44.6786306,30.7057297 C44.9842162,30.3756396 45.137009,29.9605045 45.137009,29.4581622 C45.137009,28.9442883 44.9878198,28.5219459 44.6887207,28.1925766 C44.3903423,27.8624865 43.8959279,27.6974414 43.2061982,27.6974414 Z" id="Combined-Shape"></path>
        </g>
    </g>
</svg>