<?xml version="1.0" encoding="UTF-8"?>
<svg width="79px" height="79px" viewBox="0 0 79 79" version="1.1" xmlns="http://www.w3.org/2000/svg" xmlns:xlink="http://www.w3.org/1999/xlink">
    <!-- Generator: Sketch 59 (86127) - https://sketch.com -->
    <title>Combined Shape</title>
    <desc>Created with Sketch.</desc>
    <g id="Landig-Page" stroke="none" stroke-width="1" fill="none" fill-rule="evenodd">
        <g id="Beneficios" transform="translate(-945.000000, -258.000000)" fill="#BD10E0" fill-rule="nonzero">
            <g transform="translate(172.000000, 206.000000)" id="Group-4">
                <g transform="translate(690.000000, 1.000000)">
                    <g id="Group-6" transform="translate(83.000000, 51.000000)">
                        <path d="M39.1489954,-5.5067062e-14 C60.7338169,-5.5067062e-14 78.2952009,17.561384 78.2952009,39.1489954 C78.2952009,60.7338169 60.7338169,78.2952009 39.1489954,78.2952009 C17.561384,78.2952009 -5.5067062e-14,60.7338169 -5.5067062e-14,39.1489954 C-5.5067062e-14,17.561384 17.5613837,-5.5067062e-14 39.1489954,-5.5067062e-14 Z M39.0014604,4 C19.7029001,4 4,19.7028998 4,39.0014604 C4,58.300021 19.7029001,74 39.0014604,74 C58.3000207,74 74,58.3000207 74,39.0014604 C74,19.7029001 58.3000207,4 39.0014604,4 Z M38.5825891,8.57142857 C55.128348,8.57142857 68.5909597,22.0340403 68.5909597,38.5825891 C68.5909597,55.128348 55.128348,68.5909597 38.5825891,68.5909597 C22.0340403,68.5909597 8.57142857,55.128348 8.57142857,38.5825891 C8.57142857,22.0340403 22.03404,8.57142857 38.5825891,8.57142857 Z M38.5729214,12.5714286 C24.2344776,12.5714286 12.5714286,24.2344776 12.5714286,38.5729214 C12.5714286,52.9083795 24.2344776,64.5714286 38.5729214,64.5714286 C52.9083795,64.5714286 64.5714286,52.9083792 64.5714286,38.5729214 C64.5714286,24.2344776 52.9083795,12.5714286 38.5729214,12.5714286 Z M38.9642857,18 C40.5435269,18 41.8214286,19.2779017 41.8214286,20.8571429 L41.8214286,20.8571429 L41.8214286,23.3571429 L42.7142857,23.3571429 C47.2427454,23.3571429 50.9285714,27.0429686 50.9285714,31.5714286 L50.9285714,31.5714286 L50.9285714,32.1071429 C50.9285714,33.686384 49.6506697,34.9642857 48.0714286,34.9642857 C46.4921874,34.9642857 45.2142857,33.686384 45.2142857,32.1071429 L45.2142857,32.1071429 L45.2142857,31.5714286 C45.2142857,30.1930803 44.092634,29.0714286 42.7142857,29.0714286 L42.7142857,29.0714286 L35.2142857,29.0714286 C33.8359374,29.0714286 32.7142857,30.1930803 32.7142857,31.5714286 L32.7142857,31.5714286 L32.7142857,33 C32.7142857,34.3783483 33.8359374,35.5 35.2142857,35.5 L35.2142857,35.5 L42.7142857,35.5 C47.2427454,35.5 50.9285714,39.185826 50.9285714,43.7142857 L50.9285714,43.7142857 L50.9285714,45.5 C50.9285714,50.0284597 47.2427454,53.7142857 42.7142857,53.7142857 L42.7142857,53.7142857 L41.3722097,53.7142857 L41.3722097,56.3928571 C41.3722097,57.9720983 40.094308,59.25 38.5150669,59.25 C36.9358257,59.25 35.657924,57.9720983 35.657924,56.3928571 L35.657924,56.3928571 L35.657924,53.7142857 L35.2142857,53.7142857 C30.685826,53.7142857 27,50.0284597 27,45.5 C27,43.9207589 28.2779017,42.6428571 29.8571429,42.6428571 C31.436384,42.6428571 32.7142857,43.9207589 32.7142857,45.5 C32.7142857,46.8783483 33.8359374,48 35.2142857,48 L35.2142857,48 L42.7142857,48 C44.092634,48 45.2142857,46.8783483 45.2142857,45.5 L45.2142857,45.5 L45.2142857,43.7142857 C45.2142857,42.3359374 44.092634,41.2142857 42.7142857,41.2142857 L42.7142857,41.2142857 L35.2142857,41.2142857 C30.685826,41.2142857 27,37.5284597 27,33 L27,33 L27,31.5714286 C27,27.0429689 30.685826,23.3571429 35.2142857,23.3571429 L35.2142857,23.3571429 L36.1071429,23.3571429 L36.1071429,20.8571429 C36.1071429,19.2779017 37.3850446,18 38.9642857,18 Z" id="Combined-Shape"></path>
                    </g>
                </g>
            </g>
        </g>
    </g>
</svg>