<?xml version="1.0" encoding="UTF-8"?>
<svg width="21px" height="30px" viewBox="0 0 21 30" version="1.1" xmlns="http://www.w3.org/2000/svg" xmlns:xlink="http://www.w3.org/1999/xlink">
    <!-- Generator: Sketch 59 (86127) - https://sketch.com -->
    <title>Shape</title>
    <desc>Created with Sketch.</desc>
    <g id="Landig-Page" stroke="none" stroke-width="1" fill="none" fill-rule="evenodd">
        <g id="HOME-1" transform="translate(-1181.000000, -639.000000)" fill="#FFFFFF">
            <g id="Mouse-" transform="translate(1181.000000, 639.000000)">
                <path d="M10.5,30 C4.7105625,30 0,25.4182979 0,19.787234 L0,10.212766 C0,4.58170213 4.7105625,-7.10542736e-14 10.5,-7.10542736e-14 C16.2894375,-7.10542736e-14 21,4.58170213 21,10.212766 L21,19.787234 C21,25.4182979 16.2894375,30 10.5,30 L10.5,30 Z M18.1666667,10.8966565 C18.1666667,6.67294833 14.802381,3.23708207 10.6666667,3.23708207 C6.53095238,3.23708207 3.16666667,6.67294833 3.16666667,10.8966565 L3.16666667,19.1033435 C3.16666667,23.3270517 6.53095238,26.7629179 10.6666667,26.7629179 C14.802381,26.7629179 18.1666667,23.3270517 18.1666667,19.1033435 L18.1666667,10.8966565 L18.1666667,10.8966565 Z M10.5,6 C11.3284271,6 12,6.67157288 12,7.5 L12,11.5 C12,12.3284271 11.3284271,13 10.5,13 C9.67157288,13 9,12.3284271 9,11.5 L9,7.5 C9,6.67157288 9.67157288,6 10.5,6 Z" id="Shape"></path>
            </g>
        </g>
    </g>
</svg>