<?xml version="1.0" encoding="UTF-8"?>
<svg width="205px" height="182px" viewBox="0 0 205 182" version="1.1" xmlns="http://www.w3.org/2000/svg" xmlns:xlink="http://www.w3.org/1999/xlink">
    <!-- Generator: Sketch 59 (86127) - https://sketch.com -->
    <title>Combined Shape</title>
    <desc>Created with Sketch.</desc>
    <g id="Symbols" stroke="none" stroke-width="1" fill="none" fill-rule="evenodd">
        <g id="icon-shirt" fill="#FFFFFF">
            <path d="M134.3609,1.1743 C140.7669,3.7823 147.2039,6.3373 153.6379,8.8903 C157.6569,10.4843 161.6729,12.0783 165.6859,13.6883 C166.9539,14.2013 168.3909,14.8733 169.5419,15.9903 C178.3959,24.5613 187.2229,33.1673 196.1959,41.9183 L203.5629,49.0983 C204.1969,49.7173 204.5449,50.5693 204.523883,51.4533 C204.4999,52.3363 204.1119,53.1723 203.4489,53.7573 L168.0389,85.0163 C166.8249,86.0853 165.0069,86.0763 163.8089,84.9973 C163.304367,84.5444273 162.259801,83.478151 161.046709,82.1832238 L161.046,154.132 C161.046,157.47107 158.358275,160.192384 155.033551,160.245217 L155.0332,178.0612 C155.0332,179.8162 153.6082,181.2402 151.8542,181.2402 L52.7442,181.2402 C50.9872,181.2402 49.5642,179.8162 49.5642,178.0612 C49.5642,172.611694 49.6321067,166.756962 49.771725,160.247152 L49.256,160.246 C45.887,160.246 43.145,157.504 43.145,154.132 L43.1453634,81.580543 C41.8069591,82.7488317 40.3579506,83.9812119 38.9109,85.2053 C38.1179,85.8753 37.5139,86.3853 37.2449,86.6293 C36.6369,87.1743 35.8759,87.4453 35.1169,87.4453 C34.2859,87.4453 33.4599,87.1233 32.8369,86.4833 L1.4249,54.1803 C0.2349,52.9573 0.2219,51.0143 1.3959,49.7763 C3.2649,47.8053 5.1119,45.8473 6.9469,43.9023 C10.7869,39.8303 14.5769,35.8123 18.4109,31.8413 C19.7009,30.5073 21.0539,29.2513 22.3609,28.0383 C24.2109,26.3203 25.9599,24.6983 27.4939,22.9163 C32.3859,17.2473 38.7279,13.1143 46.8899,10.2803 C53.8819,7.8523 60.8879,4.9333 67.6659,2.1113 L69.7829,1.2293 C72.9489,-0.0957 75.5999,0.4243 78.1269,2.8593 C91.7989,15.9963 112.5139,15.9413 126.3159,2.7273 C128.7269,0.4133 131.2859,-0.0827 134.3609,1.1743 Z M148.67383,160.245261 L56.1311021,160.247219 C56.0174266,165.515111 55.9499888,170.349298 55.9282,174.8822 L148.6742,174.8822 L148.67383,160.245261 Z M154.688,31.622 L49.503,31.622 L49.504698,74.0396887 C49.5060374,74.094032 49.5059917,74.1484419 49.504553,74.2028617 L49.503,153.888 L154.688,153.888 L154.687657,73.7400072 C154.687518,73.7226864 154.68752,73.7053684 154.687663,73.6880551 L154.688,31.622 Z M147.466,35.941 C149.221,35.941 150.646,37.364 150.646,39.121 L150.646,146.379 C150.646,148.134 149.221,149.559 147.466,149.559 L56.716,149.559 C54.959,149.559 53.536,148.134 53.536,146.379 L53.536,39.121 C53.536,37.364 54.959,35.941 56.716,35.941 L147.466,35.941 Z M144.288,42.3 L59.894,42.3 L59.894,143.201 L144.288,143.201 L144.288,42.3 Z M122.7171,52.2647 C126.011233,52.2647 128.704968,54.8842753 128.823062,58.1509898 L128.8271,58.3745 L128.8271,58.3745 L128.8271,79.1735 C128.8271,80.8921287 127.464619,82.2902299 125.762598,82.3504767 L125.7627,108.8059 C125.7627,110.5629 124.3387,111.9849 122.5837,111.9849 C120.8287,111.9849 119.4047,110.5609 119.4047,108.8059 L119.40383,82.3522611 L86.64783,82.3522611 L86.6484,108.8059 C86.6484,110.5629 85.2244,111.9849 83.4694,111.9849 C81.7124,111.9849 80.2904,110.5609 80.2904,108.8059 L80.2903071,82.3407289 C78.6626682,82.2011539 77.3871,80.8375785 77.3871,79.1735 L77.3871,58.3745 C77.3871,55.009373 80.1237509,52.2690528 83.4890798,52.2647052 L83.4894549,52.2646039 L122.7171,52.2647 L122.7171,52.2647 Z M96.2448,87.4457 C98.0018,87.4457 99.4238,88.8677 99.4238,90.6247 L99.4238,104.9597 C99.4238,106.7147 98.0018,108.1387 96.2448,108.1387 C94.4878,108.1387 93.0658,106.7147 93.0658,104.9597 L93.0658,90.6247 C93.0658,88.8677 94.4878,87.4457 96.2448,87.4457 Z M109.2321,84.5356 C110.9871,84.5356 112.4111,85.9576 112.4111,87.7146 L112.4111,102.0456 C112.4111,103.8006 110.9871,105.2246 109.2321,105.2246 C107.4771,105.2246 106.0531,103.8006 106.0531,102.0456 L106.0531,87.7146 C106.0531,85.9576 107.4771,84.5356 109.2321,84.5356 Z M131.2729,6.8563 C131.2749,6.8643 131.0929,6.9553 130.7179,7.3183 C114.4029,22.9443 89.9019,22.9923 73.7189,7.4413 C73.2189,6.9603 72.9999,6.8733 72.9809,6.8663 C72.9809,6.8683 72.7709,6.8703 72.2309,7.0973 L70.1109,7.9793 C63.2489,10.8383 56.1509,13.7943 48.9769,16.2873 C41.8019,18.7793 36.5059,22.2043 32.3109,27.0683 C30.5459,29.1173 28.5859,30.9383 26.6879,32.6993 C25.3859,33.9093 24.1539,35.0513 22.9839,36.2613 C19.1669,40.2143 15.3969,44.2113 11.5739,48.2673 C10.4249,49.4863 9.2719,50.7093 8.1099,51.9363 L35.3179,79.9153 C37.4186269,78.1370985 41.425399,74.7183446 43.1465284,72.9317103 L43.145,31.37 C43.145,28.005 45.885,25.265 49.256,25.265 L154.935,25.265 C158.305,25.265 161.046,28.002 161.046,31.37 L161.045196,72.605548 C162.386397,74.2488385 164.498991,76.5762864 166.0869,78.2583 L196.6709,51.2573 L191.7609,46.4703 C182.7919,37.7263 173.9669,29.1213 165.1169,20.5533 C164.6989,20.1463 163.6899,19.7393 163.3079,19.5843 C159.3139,17.9843 155.3049,16.3903 151.2919,14.7993 C144.8409,12.2393 138.3889,9.6783 131.9639,7.0613 C131.5109,6.8773 131.3109,6.8583 131.2729,6.8563 Z M122.46883,58.6222611 L83.74483,58.6222611 L83.7451,75.9945 L122.4691,75.9945 L122.46883,58.6222611 Z" id="Combined-Shape"></path>
        </g>
    </g>
</svg>