<?xml version="1.0" encoding="UTF-8"?>
<svg width="80px" height="71px" viewBox="0 0 80 71" version="1.1" xmlns="http://www.w3.org/2000/svg" xmlns:xlink="http://www.w3.org/1999/xlink">
    <!-- Generator: Sketch 59 (86127) - https://sketch.com -->
    <title>Combined Shape</title>
    <desc>Created with Sketch.</desc>
    <g id="Landig-Page" stroke="none" stroke-width="1" fill="none" fill-rule="evenodd">
        <g id="Beneficios" transform="translate(-255.000000, -262.000000)" fill="#BD10E0">
            <g transform="translate(172.000000, 206.000000)" id="Group-5">
                <g>
                    <path d="M135.485125,56.2639368 C137.997282,57.2866819 140.521596,58.2886427 143.044733,59.2898192 C144.620812,59.9149172 146.195714,60.5400152 147.769439,61.1713878 C148.266694,61.3725643 148.830224,61.6360937 149.281596,62.0741329 C152.753753,65.4353094 156.215322,68.8102113 159.734145,72.241976 L162.623165,75.0576623 C162.871792,75.3004074 163.008263,75.634525 163.000021,75.9811917 C162.990616,76.3274662 162.838459,76.6553094 162.578459,76.8847211 L148.692184,89.1431525 C148.216106,89.5623682 147.503165,89.5588388 147.033361,89.1357015 C146.835506,88.9581055 146.425876,88.5399622 145.950158,88.0321521 L145.949871,116.247349 C145.949871,117.556935 144.895624,118.62421 143.591607,118.644696 L143.59191,125.631349 C143.59191,126.319584 143.033086,126.878015 142.345243,126.878015 L103.478576,126.878015 C102.789557,126.878015 102.231518,126.319584 102.231518,125.631349 C102.231518,123.494667 102.258138,121.19913 102.312871,118.646808 L102.110655,118.644996 C100.789478,118.644996 99.7141843,117.569702 99.7141843,116.247349 L99.7145914,87.7955659 C99.1896533,88.2537868 98.6213191,88.7371549 98.0537529,89.2172701 C97.7427725,89.4800152 97.5059098,89.6800152 97.4004196,89.7757015 C97.1619882,89.989427 96.8635568,90.0957015 96.5659098,90.0957015 C96.2400274,90.0957015 95.9161059,89.969427 95.6717921,89.7184466 L83.3533608,77.0506035 C82.8866941,76.5709956 82.8815961,75.8090349 83.3419882,75.3235447 C84.0749294,74.5506035 84.7992431,73.7827603 85.518851,73.0200152 C87.0247333,71.4231525 88.5110078,69.8474662 90.0145372,68.2902113 C90.5204196,67.7670741 91.0510078,67.274525 91.5635568,66.7988388 C92.289047,66.1251133 92.9749294,65.4890349 93.576498,64.7902113 C95.4949294,62.5670741 97.9819882,60.9462898 101.182773,59.8349172 C103.924733,58.8827603 106.672184,57.7380545 109.330224,56.6313878 L110.16042,56.2855054 C111.401988,55.7658976 112.441596,55.9698192 113.432576,56.9247211 C118.794145,62.0764858 126.917674,62.0549172 132.330224,56.8729564 C133.275714,55.9655054 134.279243,55.7709956 135.485125,56.2639368 Z M141.098,118.644 L104.806747,118.646676 C104.762184,120.712049 104.735747,122.607418 104.727204,124.384682 L141.098184,124.384682 L141.098,118.644 Z M143.456537,68.2042113 L102.207518,68.2042113 L102.208481,84.8550861 C102.208643,84.8691127 102.208568,84.8831482 102.208258,84.8971861 L102.207518,116.151662 L143.456537,116.151662 L143.456537,68.2042113 Z M140.62438,69.8979368 C141.312616,69.8979368 141.871439,70.455976 141.871439,71.1449956 L141.871439,113.206956 C141.871439,113.895192 141.312616,114.454015 140.62438,114.454015 L105.036145,114.454015 C104.347125,114.454015 103.789086,113.895192 103.789086,113.206956 L103.789086,71.1449956 C103.789086,70.455976 104.347125,69.8979368 105.036145,69.8979368 L140.62438,69.8979368 Z M139.378106,72.3916623 L106.28242,72.3916623 L106.28242,111.960682 L139.378106,111.960682 L139.378106,72.3916623 Z M130.921,76.299 C132.185057,76.2993878 133.225005,77.2862206 133.309469,78.5316168 L133.315008,78.6953878 L133.315008,78.6953878 L133.315008,86.8518584 C133.315008,87.5256192 132.781036,88.0737617 132.11387,88.0977092 L132.113282,98.4724074 C132.113282,99.161427 131.554851,99.7190741 130.866616,99.7190741 C130.17838,99.7190741 129.619949,99.1606427 129.619949,98.4724074 L129.619,88.098 L116.774,88.098 L116.774341,98.4724074 C116.774341,99.161427 116.21591,99.7190741 115.527674,99.7190741 C114.838655,99.7190741 114.281008,99.1606427 114.281008,98.4724074 L114.281,88.093 L114.261578,88.0920942 C113.632578,88.028306 113.142459,87.4978143 113.142459,86.8518584 L113.142459,78.6953878 C113.142459,77.3756886 114.215723,76.3010271 115.535517,76.2993897 L115.535485,76.2993502 L130.921,76.299 Z M120.537635,90.0958584 C121.226655,90.0958584 121.784302,90.6535054 121.784302,91.342525 L121.784302,96.9640937 C121.784302,97.652329 121.226655,98.2107603 120.537635,98.2107603 C119.848616,98.2107603 119.290969,97.652329 119.290969,96.9640937 L119.290969,91.342525 C119.290969,90.6535054 119.848616,90.0958584 120.537635,90.0958584 Z M125.630694,88.9546427 C126.318929,88.9546427 126.877361,89.5122898 126.877361,90.2013094 L126.877361,95.8213094 C126.877361,96.5095447 126.318929,97.067976 125.630694,97.067976 C124.942459,97.067976 124.384027,96.5095447 124.384027,95.8213094 L124.384027,90.2013094 C124.384027,89.5122898 124.942459,88.9546427 125.630694,88.9546427 Z M134.274145,58.4921721 L134.250746,58.5089041 C134.218938,58.5309521 134.154537,58.5784466 134.056498,58.6733486 C127.658459,64.8011917 118.050224,64.8200152 111.703949,58.7215839 C111.507871,58.5329564 111.421988,58.4988388 111.414537,58.4960937 C111.414537,58.496878 111.332184,58.4976623 111.12042,58.5866819 L110.289047,58.9325643 C107.598067,60.0537407 104.814537,61.2129564 102.001204,62.1906035 C99.1874784,63.1678584 97.1106157,64.5109956 95.4655176,66.4184466 C94.7733608,67.221976 94.0047333,67.9360937 93.2604196,68.6266819 C92.7498314,69.1011917 92.2666941,69.5490349 91.8078706,70.0235447 C90.3110078,71.5737407 88.8325765,73.1411917 87.3333608,74.7317799 C86.8827725,75.2098192 86.4306157,75.689427 85.9749294,76.1706035 L96.6447333,87.1427603 C97.4692817,86.4448052 99.0426311,85.1023494 99.7165854,84.4022267 L99.7141843,68.1053878 C99.7141843,66.7857799 100.788694,65.7112701 102.110655,65.7112701 L143.5534,65.7112701 C144.874969,65.7112701 145.949871,66.7846035 145.949871,68.1053878 L145.947956,84.2742317 C146.473836,84.9187676 147.303353,85.8326745 147.926694,86.4929564 L159.92042,75.904329 L157.994929,74.0270741 C154.477674,70.5980545 151.01689,67.2235447 147.546302,63.8635447 C147.38238,63.7039368 146.986694,63.544329 146.83689,63.4835447 C145.270616,62.8560937 143.698459,62.2309956 142.124733,61.6070741 C139.594929,60.6031525 137.064733,59.5988388 134.545125,58.5725643 C134.367478,58.5004074 134.289047,58.4929564 134.274145,58.4921721 Z M130.821,78.792 L115.635,78.792 L115.635792,85.6051917 L130.821674,85.6051917 L130.821,78.792 Z" id="Combined-Shape"></path>
                </g>
            </g>
        </g>
    </g>
</svg>