<?xml version="1.0" encoding="UTF-8"?>
<svg width="45px" height="80px" viewBox="0 0 45 80" version="1.1" xmlns="http://www.w3.org/2000/svg" xmlns:xlink="http://www.w3.org/1999/xlink">
    <!-- Generator: Sketch 59 (86127) - https://sketch.com -->
    <title>Shape</title>
    <desc>Created with Sketch.</desc>
    <g id="Landig-Page" stroke="none" stroke-width="1" fill="none" fill-rule="evenodd">
        <g id="Beneficios" transform="translate(-617.000000, -258.000000)" fill="#BD10E0" fill-rule="nonzero">
            <g transform="translate(172.000000, 206.000000)" id="Group-3">
                <g transform="translate(345.000000, 1.000000)">
                    <path d="M140.005974,51 L104.174557,51 C101.872218,51 100,52.8722184 100,55.1745572 L100,58.9691747 C100,59.6454196 100.547209,60.1926282 101.223454,60.1926282 L102.973805,60.1926282 L102.973805,121.807372 L101.223454,121.807372 C100.547209,121.807372 100,122.35458 100,123.030825 L100,126.825443 C100,129.127782 101.872218,131 104.174557,131 L140.005974,131 C142.308313,131 144.181726,129.127782 144.181726,126.825443 L144.181726,123.030825 C144.181726,122.35458 143.634517,121.807372 142.958272,121.807372 L141.206727,121.807372 L141.206727,81.8910064 C141.206727,81.2147615 140.659518,80.6675529 139.983273,80.6675529 C139.307028,80.6675529 138.75982,81.2147615 138.75982,81.8910064 L138.75982,121.807372 L135.733445,121.807372 C136.188058,121.052421 136.465844,120.178664 136.465844,119.235013 L136.465844,117.083216 L136.465844,102.914334 C136.465844,100.174707 135.261507,97.5939843 133.132411,95.8113742 L127.281579,91.2031123 C127.200335,91.1385942 127.182413,91.0573493 127.183608,91 C127.183608,90.9426506 127.200335,90.8614057 127.281579,90.7968876 L133.161086,86.1659249 C135.261507,84.4060157 136.465844,81.8252935 136.465844,79.0856656 L136.465844,64.9167837 L136.465844,62.764987 C136.465844,61.8213357 136.188058,60.9475791 135.733445,60.1926281 L138.75982,60.1926281 L138.75982,64.9155888 C138.75982,65.5918337 139.307028,66.1390423 139.983273,66.1390423 C140.659518,66.1390423 141.206727,65.5918337 141.206727,64.9155888 L141.206727,60.1926281 L142.958272,60.1926281 C143.634517,60.1926281 144.181726,59.6454195 144.181726,58.9691746 L144.181726,55.1745571 C144.181726,52.8722185 142.308313,51 140.005974,51 Z M105.420712,60.1926282 L108.447086,60.1926282 C107.992473,60.9475791 107.714687,61.8213358 107.714687,62.7649871 L107.714687,64.9167838 L107.714687,79.0856658 C107.714687,81.8252936 108.920219,84.4060158 111.042146,86.1826519 L116.79859,90.7968877 C116.87864,90.8614058 116.895367,90.9426507 116.895367,91.0000001 C116.895367,91.0561546 116.87864,91.1373996 116.79859,91.2007229 L111.021835,95.8340752 C108.920219,97.5927896 107.714687,100.173512 107.714687,102.914334 L107.714687,117.083216 L107.714687,119.235013 C107.714687,120.178664 107.992473,121.052421 108.447086,121.807372 L105.420712,121.807372 L105.420712,60.1926282 Z M134.018937,115.859763 L110.161594,115.859763 L110.161594,106.273156 L119.860808,100.18307 C121.215688,99.3323874 122.966038,99.3323874 124.320918,100.18307 L134.018937,106.273082 L134.018937,115.859763 L134.018937,115.859763 Z M141.734819,126.825443 C141.734819,127.777682 140.959407,128.553093 140.005974,128.553093 L104.174557,128.553093 C103.222319,128.553093 102.446907,127.777682 102.446907,126.825443 L102.446907,124.254279 L112.733953,124.254279 L131.446578,124.254279 L141.734819,124.254279 L141.734819,126.825443 L141.734819,126.825443 Z M112.733953,121.807372 C111.31575,121.807372 110.161594,120.653215 110.161594,119.235013 L110.161594,118.30667 L134.018937,118.30667 L134.018937,119.235013 C134.018937,120.653215 132.864781,121.807372 131.446578,121.807372 L112.733953,121.807372 Z M134.018937,79.0856656 C134.018937,81.1000628 133.133606,82.9973715 131.617432,84.2674214 L125.767795,88.8744885 C125.111861,89.390633 124.736701,90.1648497 124.736701,90.9988052 C124.735506,91.8327608 125.110667,92.6069775 125.7666,93.1243168 L131.588757,97.7098779 C133.133606,99.0026285 134.018937,100.899937 134.018937,102.914334 L134.018937,103.383658 L125.622032,98.1113236 C123.476209,96.7636131 120.704322,96.7636131 118.5585,98.1113236 L110.161594,103.383658 L110.161594,102.914334 C110.161594,100.899937 111.046925,99.0026285 112.572658,97.7266047 L118.329102,93.1099794 C118.973088,92.5950297 119.342274,91.8255921 119.342274,91.0011948 C119.343469,90.1756026 118.974283,89.4061651 118.329102,88.8888258 L112.592969,84.2901221 C111.04812,82.9961766 110.161594,81.0988679 110.161594,79.0856656 L110.161594,66.1402372 L134.018937,66.1402372 L134.018937,79.0856656 L134.018937,79.0856656 Z M134.018937,62.7649871 L134.018937,63.6933303 L110.161594,63.6933303 L110.161594,62.7649871 C110.161594,61.3467846 111.31575,60.1926282 112.733953,60.1926282 L131.446579,60.1926282 C132.864781,60.1926282 134.018937,61.3467846 134.018937,62.7649871 Z M141.734819,57.7457212 L131.446579,57.7457212 L112.733953,57.7457212 L102.446907,57.7457212 L102.446907,55.1745572 C102.446907,54.2223185 103.222319,53.446907 104.174557,53.446907 L140.005974,53.446907 C140.959408,53.446907 141.734819,54.2223185 141.734819,55.1745572 L141.734819,57.7457212 Z" id="Shape"></path>
                </g>
            </g>
        </g>
    </g>
</svg>