<?xml version="1.0" encoding="UTF-8"?>
<svg width="37px" height="45px" viewBox="0 0 37 45" version="1.1" xmlns="http://www.w3.org/2000/svg" xmlns:xlink="http://www.w3.org/1999/xlink">
    <!-- Generator: Sketch 59 (86127) - https://sketch.com -->
    <title>UM-Movil</title>
    <desc>Created with Sketch.</desc>
    <g id="Page-1" stroke="none" stroke-width="1" fill="none" fill-rule="evenodd">
        <path d="M14.2882178,31.7238189 L14.2882178,33.7221716 C15.4360202,32.208689 17.2247407,31.3180244 19.1242314,31.3141566 C21.056462,31.1509992 22.884684,32.212805 23.7004591,33.9719657 C24.8425507,32.282573 26.7571787,31.280209 28.7962586,31.3041648 C31.9836312,31.3041648 33.9020498,33.492361 33.9020498,37.1493465 L33.9020498,41.1460519 C33.8646466,41.7998183 33.9917535,42.4525291 34.271745,43.044487 C34.7247698,43.4778418 35.2888812,43.7745933 35.8992732,43.9033838 L36.130213,43.9437457 C36.3233535,43.9603007 36.4665043,44.1302923 36.4499495,44.3234328 C36.4333946,44.5165732 36.2634029,44.6597241 36.0702625,44.6431692 L30.2350725,44.6431692 C30.0766678,44.6252668 29.9489414,44.5052397 29.9212378,44.3482523 C29.8981514,44.2174295 29.949115,44.0869482 30.0493303,44.0059772 L30.1151714,43.9637293 C31.3741336,43.4941164 31.4540677,43.384207 31.4540677,41.4458048 L31.4540677,37.7388605 C31.5671417,36.4615635 31.2120307,35.1867151 30.4548913,34.1518174 C29.796314,33.2089883 28.7173299,32.6489619 27.5672716,32.6530529 C25.7887377,32.6530529 23.9802285,33.8620563 23.9802285,35.0310926 C23.9640594,35.1771925 23.9640594,35.3246303 23.9802285,35.4707302 C24.0393592,35.8680188 24.0760538,36.268324 24.0901379,36.6697418 L24.0901379,41.3458872 C24.0901379,43.1743799 24.5697426,43.7539022 26.3083094,43.9037787 L26.4781694,43.9037787 C26.6031094,43.9162727 26.7118932,43.9944723 26.7635431,44.1089205 C26.8151929,44.2233687 26.801862,44.356678 26.7285719,44.4586322 C26.6552818,44.5605864 26.533167,44.6156961 26.4082271,44.6032021 L20.6429795,44.6032021 C20.4767853,44.5928962 20.339389,44.4698712 20.3108584,44.3058203 C20.2864036,44.1652052 20.3474118,44.0259585 20.4616642,43.9476001 L20.5230783,43.9137704 C21.6521476,43.5140999 21.6821229,43.384207 21.6821229,41.5856895 L21.6821229,36.749676 C21.6821229,34.2217598 20.2732842,32.6830282 17.9851704,32.6830282 C15.8769082,32.6830282 14.4380943,33.8620563 14.4380943,35.6805572 L14.4380943,42.8546435 L14.4380943,42.8546435 C14.4380943,43.2118491 14.8494913,43.4683043 15.2720827,43.6163131 L15.3873118,43.6539846 C15.5478362,43.7046997 15.651715,43.8599663 15.6373381,44.0276965 C15.6250151,44.1714652 15.528636,44.2914252 15.3963019,44.3370337 L15.3273612,44.353408 L12.4497333,44.6631527 L12.4697169,44.6331774 C11.9901122,44.6331774 11.9501451,44.523268 11.8802028,42.2951047 C11.4593949,42.8727521 10.961899,43.3904167 10.4014218,43.8338363 C9.31972908,44.5375877 8.0644238,44.9283576 6.7744116,44.9629056 C5.33609804,44.962233 3.94596416,44.4444791 2.85764027,43.5041081 C1.81818955,42.3424232 1.28582227,40.8136658 1.37885926,39.2576086 C1.36173912,39.0147771 1.36173912,38.7710414 1.37885926,38.5282099 L1.37885926,33.7821222 C1.42831361,33.039299 0.973810561,32.3554971 0.269773502,32.1134976 L0.20982292,32.1134976 C0.0638796254,32.0524727 -0.0229259916,31.9010779 -0.0018659953,31.7442979 C0.0156840016,31.613648 0.104498457,31.5063726 0.224399326,31.4624679 L0.299748792,31.4440495 C1.07910635,31.3241483 2.13007675,31.211588 3.01849893,31.0749077 L3.44715432,31.0044119 C3.60331984,30.9875985 3.74892351,31.0737155 3.8123182,31.2113241 L3.83683311,31.2841813 C3.85747575,31.5635699 3.85747575,31.8441008 3.83683311,32.1234894 L3.76689076,38.3283746 L3.76689076,39.1277157 C3.76689076,41.8354836 5.39554823,43.7039434 7.7635962,43.7039434 C10.1316442,43.7039434 11.9401534,42.0553024 11.7603016,40.1568673 L11.7603016,33.8920316 C11.8672357,33.1350204 11.4526498,32.4077638 10.7628064,32.107738 L10.6212406,32.0535471 C10.4532621,32.0248451 10.3304294,31.8792441 10.3304294,31.7088312 C10.3304294,31.562763 10.4206739,31.434924 10.5522403,31.3833048 L10.6212406,31.3641154 C11.6204169,31.1642801 13.1591485,31.0044119 13.8086132,30.8945025 C14.0184402,30.8945025 14.2882178,30.8945025 14.2882178,31.7238189 Z M20.4031771,4.14655134 C23.3307639,8.04333914 20.9826994,11.9001599 19.5738608,13.9584632 C18.2872371,15.5404896 17.7742554,17.6144013 18.1750139,19.6138014 C18.252305,20.2158391 18.431377,20.8003572 18.7045773,21.3423765 C19.0542891,21.87194 19.6138278,23.3407292 20.5130865,23.0209928 C21.931917,22.4914293 23.3307639,22.8211575 25.7088036,23.3307374 C29.0660362,24.0501444 30.7046854,24.3299138 31.1243395,24.4398232 C31.2248113,24.45972 31.3120364,24.5215045 31.3641418,24.6096832 L33.8121239,27.9769075 C33.8749485,28.0814339 33.8749485,28.2121011 33.8121239,28.3166275 C33.7455441,28.4609267 33.5878241,28.5397867 33.4324369,28.506471 C31.4340842,28.1167922 26.3582682,27.1575829 24.2899732,26.85783 C21.5822053,26.4681512 19.0343055,26.85783 17.8552774,28.2067181 C17.7882171,28.3015113 17.6814675,28.3604077 17.5655163,28.3665863 C17.4492498,28.3712551 17.3391306,28.3142969 17.2757551,28.2167098 C16.1167106,26.8478382 13.6187697,26.4681512 11.0109194,26.8478382 C9.01256665,27.1375994 3.80685781,28.1068004 1.75854628,28.506471 C1.66714506,28.5373984 1.56702693,28.5291864 1.48188701,28.4837784 C1.39674709,28.4383705 1.33415225,28.3598023 1.30891692,28.2666687 C1.28886886,28.1613576 1.31427386,28.052479 1.37885926,27.9669158 L3.70694018,24.5996914 C3.76457943,24.4949461 3.87735524,24.4327249 3.99670132,24.4398232 C4.48629774,24.3399056 6.27482342,23.9901938 9.99175948,23.011001 C12.3198404,22.4015034 14.9876413,22.8311493 16.0367765,23.940235 C16.6729615,24.6241823 17.1445695,25.44437 17.4156398,26.3382583 C17.5116842,26.6462544 17.5884365,26.9599379 17.6454504,27.2774841 C17.7971218,26.8590537 17.9705487,26.4488324 18.1650221,26.0484971 C18.6221415,25.8173102 18.9650184,25.4094672 19.1142396,24.9194279 C19.3840173,24.1900291 19.1142396,23.1708692 17.8053186,22.2416352 C14.957666,20.2432825 14.6079543,15.4272524 17.0759199,11.7902505 C19.3840173,8.41303439 20.1933501,6.2148464 19.8836054,4.43631248 C19.8346019,4.3043853 19.8747337,4.15589767 19.9835231,4.06661723 C20.1262038,4.00156478 20.2944015,4.03360244 20.4031771,4.14655134 Z M17.2957387,0.159837665 C19.2940914,3.40716083 17.4855822,7.24399805 14.6079543,11.6603576 C12.9892886,14.1582985 12.1000216,18.0850616 14.8877236,21.2124836 C15.0025382,21.3441799 15.0025382,21.5404084 14.8877236,21.6721047 C14.7978863,21.8125464 14.6152159,21.8603887 14.4680696,21.7820141 L14.5180284,21.8219811 C10.8810264,20.4431178 7.85352207,15.6470712 11.7103428,10.5113047 C15.0775671,6.03499466 17.4655986,3.51707023 16.7062246,0.419623519 C16.6327274,0.271939785 16.6796801,0.0926659908 16.816134,-3.05524272e-05 C16.9928109,-0.0870098807 17.2065848,-0.0157519167 17.2957387,0.159837665 Z M23.6604921,11.1307941 C24.7317099,12.7413827 25.0215743,14.7484185 24.4498414,16.5962888 C23.6704838,18.6945591 21.9618923,19.2740814 21.0826171,20.8827554 C21.0182765,20.9907235 20.8981514,21.0527236 20.7728724,21.0426236 C20.630767,21.0244623 20.5109823,20.9278618 20.4631277,20.7928295 L20.4631277,20.7628542 C19.9269576,19.1782055 20.2195139,17.4303689 21.2424853,16.1066924 C22.2416616,14.7178372 23.240838,13.5188256 23.0410027,11.3406211 C23.0278128,11.1957814 23.1140357,11.0602883 23.2508298,11.0108929 C23.3983213,10.9451562 23.5717197,10.9959069 23.6604921,11.1307941 Z" id="UM-Movil" fill="#FFFFFF" fill-rule="nonzero"></path>
    </g>
</svg>