<?xml version="1.0" encoding="UTF-8"?>
<svg width="175px" height="41px" viewBox="0 0 175 41" version="1.1" xmlns="http://www.w3.org/2000/svg" xmlns:xlink="http://www.w3.org/1999/xlink">
    <!-- Generator: Sketch 59 (86127) - https://sketch.com -->
    <title>UM</title>
    <desc>Created with Sketch.</desc>
    <g id="Landig-Page" stroke="none" stroke-width="1" fill="none" fill-rule="evenodd" opacity="0.502287946">
        <g id="Beneficios" transform="translate(-1027.000000, -55.000000)" fill="#000000">
            <g id="Icons" transform="translate(1027.000000, 55.000000)">
                <g id="UM">
                    <path d="M64.3800883,19.6289364 C64.3800883,21.8392091 63.0567668,23.5413303 60.2468728,23.5413303 C57.6008481,23.5413303 56.2033216,21.9733909 56.2033216,19.598497 L56.2033216,12.7291333 L57.5414841,12.7291333 L57.5414841,19.6432242 C57.5414841,21.3764061 58.4634806,22.3765576 60.3216961,22.3765576 C62.2392756,22.3765576 63.0567668,21.241603 63.0567668,19.6289364 L63.0567668,12.7291333 L64.3800883,12.7291333 L64.3800883,19.6289364 Z" id="Fill-1"></path>
                    <path d="M73.8525353,23.3919909 L68.172765,14.5359909 L68.1140194,14.5359909 C68.157924,15.2379606 68.2327473,16.343097 68.2327473,17.4333242 L68.2327473,23.3919909 L66.9984717,23.3919909 L66.9984717,12.7288848 L68.5444081,12.7288848 L74.2087191,21.5550667 L74.2687014,21.5550667 C74.2390194,21.0767333 74.1641961,19.7181424 74.1641961,18.7471879 L74.1641961,12.7288848 L75.4126943,12.7288848 L75.4126943,23.3919909 L73.8525353,23.3919909 Z" id="Fill-3"></path>
                    <polygon id="Fill-5" points="77.2886572 23.3919909 77.7345053 22.1974 78.5371555 22.1974 78.5371555 13.9085667 77.2886572 13.9085667 77.2886572 12.7288848 81.1238163 12.7288848 80.6773498 13.9085667 79.875318 13.9085667 79.875318 22.1974 81.1238163 22.1974 81.1238163 23.3919909"></polygon>
                    <path d="M87.3480654,23.3919909 L86.0099028,23.3919909 L82.2192668,12.7288848 L83.6167933,12.7288848 L86.0099028,19.5690515 C86.322182,20.4505515 86.5305742,21.1966273 86.6789841,21.898597 C86.812553,21.1966273 87.0364046,20.4350212 87.3480654,19.5392333 L89.7263339,12.7288848 L91.1387014,12.7288848 L87.3480654,23.3919909 Z" id="Fill-7"></path>
                    <polygon id="Fill-9" points="92.6519876 23.3919909 92.6519876 12.7288848 98.5834364 12.7288848 98.5834364 13.9085667 93.9895318 13.9085667 93.9895318 17.2395061 97.9731007 17.2395061 97.9731007 18.4042788 93.9895318 18.4042788 93.9895318 22.2129303 98.9099382 22.2129303 98.4640901 23.3919909"></polygon>
                    <path d="M102.027845,13.8942167 L102.027845,17.8513379 L103.617686,17.8513379 C105.342332,17.8513379 106.101078,17.1648985 106.101078,15.8205955 C106.101078,14.4315652 105.283587,13.8942167 103.543481,13.8942167 L102.027845,13.8942167 Z M107.483145,15.7609591 C107.483145,17.4630803 106.42758,18.2395955 105.357792,18.6135652 L108.271572,23.3919288 L106.709558,23.3919288 L104.138357,18.9862924 L102.027845,18.9862924 L102.027845,23.3919288 L100.689682,23.3919288 L100.689682,12.7288227 L103.617686,12.7288227 C106.249488,12.7288227 107.483145,13.7295955 107.483145,15.7609591 L107.483145,15.7609591 Z" id="Fill-11"></path>
                    <path d="M112.430883,23.5412061 C111.241131,23.5412061 110.185565,23.362297 109.516484,23.034297 L109.932032,21.9285394 C110.393958,22.1372667 111.360477,22.3764333 112.490247,22.3764333 C114.065866,22.3764333 114.883357,21.7191909 114.883357,20.6587818 C114.883357,19.613903 114.302703,19.1653879 112.38636,18.4634182 C110.572049,17.8074182 109.650671,16.9551152 109.650671,15.2971 C109.650671,13.6105091 111.032739,12.579297 113.039364,12.579297 C114.199435,12.579297 115.165954,12.8184636 115.968604,13.176903 L115.536979,14.3273879 C114.793693,14.0130545 113.932297,13.7596 113.0103,13.7596 C111.686979,13.7596 111.003057,14.3870242 111.003057,15.3126303 C111.003057,16.3879485 111.597314,16.8215545 113.321961,17.4632667 C115.195636,18.1652364 116.221519,18.8672061 116.221519,20.5395091 C116.221519,22.4366909 114.749788,23.5412061 112.430883,23.5412061" id="Fill-13"></path>
                    <polygon id="Fill-15" points="117.52462 23.3919909 117.970468 22.1974 118.773118 22.1974 118.773118 13.9085667 117.52462 13.9085667 117.52462 12.7288848 121.359779 12.7288848 120.912694 13.9085667 120.111281 13.9085667 120.111281 22.1974 121.359779 22.1974 121.359779 23.3919909"></polygon>
                    <path d="M126.303869,13.8790591 L124.564382,13.8790591 L124.564382,22.2424379 L126.007049,22.2424379 C128.875689,22.2424379 130.317739,20.8080591 130.317739,18.0008015 C130.317739,15.1631045 128.861466,13.8790591 126.303869,13.8790591 M126.18576,23.3916803 L123.226837,23.3916803 L123.226837,12.7285742 L126.496802,12.7285742 C129.69318,12.7285742 131.730106,14.5363015 131.730106,17.955453 C131.730106,21.5547561 129.678339,23.3916803 126.18576,23.3916803" id="Fill-17"></path>
                    <path d="M137.472641,15.6711318 C137.382977,15.4319652 137.071316,14.4461015 136.967429,14.0733742 C136.817783,14.6852682 136.625468,15.3276015 136.50674,15.6711318 L135.302147,18.8964652 L138.661776,18.8964652 L137.472641,15.6711318 Z M139.063101,20.0916773 L134.856299,20.0916773 L133.592959,23.3921773 L132.239337,23.3921773 L136.386776,12.6843439 L137.591369,12.6843439 L141.723966,23.3921773 L140.341899,23.3921773 L139.063101,20.0916773 Z" id="Fill-19"></path>
                    <path d="M146.321334,13.8790591 L144.581846,13.8790591 L144.581846,22.2424379 L146.024514,22.2424379 C148.893154,22.2424379 150.335203,20.8080591 150.335203,18.0008015 C150.335203,15.1631045 148.878931,13.8790591 146.321334,13.8790591 M146.203224,23.3916803 L143.244302,23.3916803 L143.244302,12.7285742 L146.514267,12.7285742 C149.710645,12.7285742 151.747571,14.5363015 151.747571,17.955453 C151.747571,21.5547561 149.695804,23.3916803 146.203224,23.3916803" id="Fill-21"></path>
                    <path d="M161.038525,13.8790591 L159.299037,13.8790591 L159.299037,22.2424379 L160.741087,22.2424379 C163.609726,22.2424379 165.051776,20.8080591 165.051776,18.0008015 C165.051776,15.1631045 163.595504,13.8790591 161.038525,13.8790591 M160.919797,23.3916803 L157.960875,23.3916803 L157.960875,12.7285742 L161.231458,12.7285742 C164.427217,12.7285742 166.464143,14.5363015 166.464143,17.955453 C166.464143,21.5547561 164.412376,23.3916803 160.919797,23.3916803" id="Fill-23"></path>
                    <polygon id="Fill-25" points="168.618436 23.3919909 168.618436 12.7288848 174.549885 12.7288848 174.549885 13.9085667 169.955981 13.9085667 169.955981 17.2395061 173.939549 17.2395061 173.939549 18.4042788 169.955981 18.4042788 169.955981 22.2129303 174.876387 22.2129303 174.42992 23.3919909"></polygon>
                    <path d="M57.3847261,31.4040742 L57.3253622,31.4040742 C57.3940018,32.1159833 57.4286307,33.0701652 57.4286307,34.2653773 L57.4286307,40.686847 L56.2036307,40.686847 L56.2036307,30.0989076 L58.16697,30.0989076 L61.4146731,38.7741348 L61.4740371,38.7741348 L64.7804859,30.0989076 L66.7283657,30.0989076 L66.7283657,40.686847 L65.4149382,40.686847 L65.4149382,34.1771652 C65.4149382,33.327347 65.4495671,32.4073318 65.5188251,31.4183621 L65.4594611,31.4183621 L61.9458569,40.686847 L60.8538074,40.686847 L57.3847261,31.4040742 Z" id="Fill-28"></path>
                    <path d="M71.2045318,38.5595061 C71.7802385,39.3055818 72.6484364,39.6789303 73.8103622,39.6789303 C74.9710512,39.6789303 75.837394,39.3055818 76.4081537,38.5595061 C76.9782951,37.8128091 77.2646025,36.7530212 77.2646025,35.3782788 C77.2646025,34.0041576 76.9813869,32.9487182 76.4155742,32.2119606 C75.8491431,31.4758242 74.9858922,31.1074455 73.8245848,31.1074455 C72.6533834,31.1074455 71.7802385,31.4783091 71.2045318,32.2194152 C70.6288251,32.9611424 70.3412809,34.014097 70.3412809,35.3782788 C70.3412809,36.7530212 70.6288251,37.8128091 71.2045318,38.5595061 M78.1055919,38.2551121 C77.7314753,39.0757333 77.182977,39.7112333 76.4600972,40.1603697 C75.7365989,40.6113697 74.8523233,40.8356273 73.8103622,40.8356273 C72.2062986,40.8356273 70.9930477,40.3461121 70.1718463,39.367703 C69.3494081,38.3886727 68.9388074,37.0543091 68.9388074,35.3633697 C68.9388074,33.6823697 69.3518816,32.3579455 70.1786484,31.3888545 C71.0054152,30.4203848 72.2205212,29.9358394 73.8245848,29.9358394 C74.8578887,29.9358394 75.7390724,30.1582333 76.4668993,30.6030212 C77.1953445,31.0478091 77.7438428,31.6783394 78.1130124,32.4939909 C78.482182,33.3096424 78.6664576,34.2712788 78.6664576,35.3782788 C78.6664576,36.4759606 78.4797085,37.4344909 78.1055919,38.2551121" id="Fill-30"></path>
                    <path d="M87.6741961,40.6870333 L82.0358569,31.8937758 L81.9764929,31.8937758 C82.0550265,33.1293667 82.0946025,34.0885182 82.0946025,34.7706091 L82.0946025,40.6870333 L80.8689841,40.6870333 L80.8689841,30.0990939 L82.4044081,30.0990939 L88.0279064,38.8625333 L88.0872703,38.8625333 C88.0186307,37.7555333 87.9846201,36.8268212 87.9846201,36.0751545 L87.9846201,30.0990939 L89.2244611,30.0990939 L89.2244611,40.6870333 L87.6741961,40.6870333 Z" id="Fill-32"></path>
                    <polygon id="Fill-34" points="94.1049205 40.6870333 94.1049205 31.2707 90.8126943 31.2707 91.2560689 30.0990939 98.7099558 30.0990939 98.7099558 31.2707 95.4325707 31.2707 95.4325707 40.6870333"></polygon>
                    <polygon id="Fill-36" points="100.298313 40.6870333 100.298313 30.0990939 106.18833 30.0990939 106.18833 31.2707 101.6272 31.2707 101.6272 34.5774121 105.582942 34.5774121 105.582942 35.7334879 101.6272 35.7334879 101.6272 39.5154273 106.512977 39.5154273 106.070221 40.6870333"></polygon>
                    <path d="M109.475486,31.4040742 L109.416122,31.4040742 C109.48538,32.1159833 109.51939,33.0701652 109.51939,34.2653773 L109.51939,40.686847 L108.29439,40.686847 L108.29439,30.0989076 L110.25773,30.0989076 L113.506051,38.7741348 L113.564797,38.7741348 L116.871246,30.0989076 L118.819125,30.0989076 L118.819125,40.686847 L117.505698,40.686847 L117.505698,34.1771652 C117.505698,33.327347 117.540327,32.4073318 117.609585,31.4183621 L117.550221,31.4183621 L114.036617,40.686847 L112.944567,40.686847 L109.475486,31.4040742 Z" id="Fill-38"></path>
                    <path d="M123.29591,38.5595061 C123.871617,39.3055818 124.739196,39.6789303 125.901122,39.6789303 C127.062429,39.6789303 127.927535,39.3055818 128.498913,38.5595061 C129.069673,37.8128091 129.355362,36.7530212 129.355362,35.3782788 C129.355362,34.0041576 129.072147,32.9487182 128.506334,32.2119606 C127.940521,31.4758242 127.076034,31.1074455 125.915345,31.1074455 C124.744761,31.1074455 123.871617,31.4783091 123.29591,32.2194152 C122.718966,32.9611424 122.432041,34.014097 122.432041,35.3782788 C122.432041,36.7530212 122.718966,37.8128091 123.29591,38.5595061 M130.196352,38.2551121 C129.822853,39.0757333 129.274355,39.7112333 128.550239,40.1603697 C127.827359,40.6113697 126.943701,40.8356273 125.901122,40.8356273 C124.29644,40.8356273 123.083189,40.3461121 122.261988,39.367703 C121.440786,38.3886727 121.028949,37.0543091 121.028949,35.3633697 C121.028949,33.6823697 121.44326,32.3579455 122.270027,31.3888545 C123.096175,30.4203848 124.311899,29.9358394 125.915345,29.9358394 C126.948648,29.9358394 127.829832,30.1582333 128.558277,30.6030212 C129.286723,31.0478091 129.834602,31.6783394 130.20439,32.4939909 C130.57356,33.3096424 130.757217,34.2712788 130.757217,35.3782788 C130.757217,36.4759606 130.570468,37.4344909 130.196352,38.2551121" id="Fill-40"></path>
                    <path d="M134.289002,31.2554182 L134.289002,35.1852061 L135.86833,35.1852061 C136.714267,35.1852061 137.337588,35.0174788 137.735203,34.681403 C138.134055,34.3453273 138.33379,33.840903 138.33379,33.1687515 C138.33379,32.4866606 138.129108,31.9971455 137.720981,31.7002061 C137.312235,31.4038879 136.670362,31.2554182 135.794744,31.2554182 L134.289002,31.2554182 Z M138.761087,30.847903 C139.39121,31.3473576 139.706581,32.1008879 139.706581,33.1091152 C139.706581,34.5037364 139.002871,35.4473576 137.595451,35.9418424 L140.488207,40.6872818 L138.93856,40.6872818 L136.385292,36.3127061 L134.289002,36.3127061 L134.289002,40.6872818 L132.960733,40.6872818 L132.960733,30.0993424 L135.86833,30.0993424 C137.166917,30.0993424 138.131581,30.3484485 138.761087,30.847903 L138.761087,30.847903 Z" id="Fill-42"></path>
                    <polygon id="Fill-44" points="142.112306 40.6870333 142.112306 30.0990939 148.001705 30.0990939 148.001705 31.2707 143.439956 31.2707 143.439956 34.5774121 147.396935 34.5774121 147.396935 35.7334879 143.439956 35.7334879 143.439956 39.5154273 148.32697 39.5154273 147.884214 40.6870333"></polygon>
                    <polygon id="Fill-46" points="150.10826 30.0991561 151.437147 30.0991561 151.437147 39.5012015 156.293242 39.5012015 155.851104 40.6870955 150.10826 40.6870955"></polygon>
                    <path d="M159.313816,38.5595061 C159.889523,39.3055818 160.757102,39.6789303 161.919647,39.6789303 C163.080336,39.6789303 163.94606,39.3055818 164.51682,38.5595061 C165.08758,37.8128091 165.373887,36.7530212 165.373887,35.3782788 C165.373887,34.0041576 165.090671,32.9487182 164.524859,32.2119606 C163.958428,31.4758242 163.094558,31.1074455 161.933251,31.1074455 C160.762668,31.1074455 159.889523,31.4783091 159.313816,32.2194152 C158.737491,32.9611424 158.450565,34.014097 158.450565,35.3782788 C158.450565,36.7530212 158.737491,37.8128091 159.313816,38.5595061 M166.214258,38.2551121 C165.84076,39.0757333 165.292261,39.7112333 164.568763,40.1603697 C163.845265,40.6113697 162.961608,40.8356273 161.919647,40.8356273 C160.314965,40.8356273 159.101714,40.3461121 158.279894,39.367703 C157.458693,38.3886727 157.048092,37.0543091 157.048092,35.3633697 C157.048092,33.6823697 157.461166,32.3579455 158.287933,31.3888545 C159.114081,30.4203848 160.329806,29.9358394 161.933251,29.9358394 C162.966555,29.9358394 163.847739,30.1582333 164.576184,30.6030212 C165.304629,31.0478091 165.852509,31.6783394 166.222297,32.4939909 C166.591466,33.3096424 166.775124,34.2712788 166.775124,35.3782788 C166.775124,36.4759606 166.588993,37.4344909 166.214258,38.2551121" id="Fill-48"></path>
                    <path d="M173.855327,40.0494212 C173.181299,40.5737242 172.264249,40.8358758 171.102323,40.8358758 C170.512394,40.8358758 169.965133,40.7905273 169.463631,40.7016939 C168.962129,40.6128606 168.543489,40.4892394 168.208949,40.3314515 L168.622023,39.2343909 C168.888542,39.3524212 169.2472,39.4567848 169.69985,39.544997 C170.153118,39.6338303 170.639779,39.6785576 171.161687,39.6785576 C171.929708,39.6785576 172.517164,39.5282242 172.925292,39.2263152 C173.333419,38.9244061 173.538101,38.5075727 173.538101,37.9733303 C173.538101,37.6279364 173.463896,37.3359667 173.316723,37.0986636 C173.169549,36.8613606 172.920345,36.6451788 172.570963,36.4457697 C172.221581,36.2482242 171.717606,36.0308 171.058419,35.7928758 C170.123436,35.4574212 169.436422,35.0499061 168.998613,34.5703303 C168.560186,34.0901333 168.341281,33.4502848 168.341281,32.6495424 C168.341281,31.8189818 168.651087,31.1617394 169.271935,30.6771939 C169.892164,30.1932697 170.703472,29.9503758 171.707094,29.9503758 C172.760186,29.9503758 173.730415,30.1485424 174.615309,30.5436333 L174.187394,31.6854212 C173.301263,31.3102091 172.465221,31.122603 171.67803,31.122603 C171.038012,31.122603 170.545786,31.2617545 170.20197,31.5375727 C169.856917,31.8140121 169.685627,32.1898455 169.685627,32.6638303 C169.685627,33.0210273 169.756122,33.3167242 169.900203,33.5546485 C170.041811,33.7913303 170.276175,34.0019212 170.600203,34.1845576 C170.925468,34.3678152 171.388012,34.5728152 171.987836,34.8001788 C172.657535,35.0468 173.19614,35.2996333 173.604885,35.5568152 C174.013012,35.8133758 174.325292,36.1270879 174.541723,36.4979515 C174.758772,36.8688152 174.866988,37.3204364 174.866988,37.8546788 C174.866988,38.7939515 174.529355,39.5251182 173.855327,40.0494212" id="Fill-50"></path>
                    <path d="M27.3126148,29.7806606 L27.299629,29.7421455 C26.680636,27.8710545 26.6577562,25.555797 28.4225972,23.0566606 C29.8232155,21.0718879 31.2980389,19.3536152 30.9876148,16.228297 C30.984523,16.1972364 30.9659717,15.8816606 31.2869081,15.7481 C31.6424735,15.6002515 31.8675618,15.9083727 31.879311,15.9276303 C33.4740989,18.6038121 33.8352297,21.4905848 32.9991873,23.7611152 C31.8904417,26.7733727 29.4478622,27.6026909 28.1956537,29.9080091 C28.1171201,30.0521303 27.9322261,30.1552515 27.755371,30.1409636 C27.5642933,30.1260545 27.380636,29.9825545 27.3126148,29.7806606" id="Fill-53"></path>
                    <path d="M18.8226413,31.3027545 C13.6245848,29.3229515 9.29905477,22.4517242 14.8112456,15.0804212 C19.6104505,8.66205758 23.0251148,4.97392121 21.8786484,0.603693939 C21.8563869,0.517345455 21.8254682,0.204875758 22.1006449,0.0644818182 C22.5328887,-0.157912121 22.7734364,0.263269697 22.7913693,0.293087879 C25.5882774,4.94037576 23.0492314,10.4530121 18.9525,16.7893758 C16.6410159,20.3638303 15.3702562,25.9982242 19.35197,30.4939364 C19.5603622,30.7287545 19.5479947,30.9766182 19.423083,31.1518 C19.3105389,31.3089667 19.1145141,31.4139515 18.8226413,31.3027545" id="Fill-55"></path>
                    <path d="M3.73467314,35.052453 C4.44333039,34.9213773 6.9879417,34.4163318 12.2799912,33.0167409 C15.6012809,32.1389682 19.3628534,32.7502409 20.9087898,34.3424076 C22.292712,35.7662258 22.783083,37.509347 22.8844965,37.7808167 C23.0397085,38.1970288 23.212235,39.1344379 23.212235,39.1344379 C23.212235,39.1344379 23.7675353,37.6379379 23.9555212,37.3639833 C24.0804329,37.1819682 24.7810512,37.1564985 25.3054329,35.7500742 C25.6956272,34.7051955 25.3202739,33.2403773 23.4367049,31.9116045 C19.3715106,29.045953 18.8786661,22.1250288 22.4046378,16.9167864 C25.6906802,12.0613924 26.8544611,8.91184697 26.4024293,6.36674091 C26.3956272,6.32449848 26.3548145,5.98158939 26.6497792,5.83498333 C26.9670053,5.67657424 27.2230124,5.9256803 27.2440371,5.95301364 C31.4347615,11.5364682 28.0763693,17.0677409 26.0610866,20.0296803 C24.1045495,22.9003015 23.4515459,25.3366955 24.0631184,28.1309076 C24.1874117,28.7334833 24.2943905,29.6423167 24.8249558,30.6089227 C25.3215106,31.3823318 26.1210689,33.4963167 27.4017226,33.0204682 C29.4355565,32.2688015 31.4236307,32.7421652 34.8259276,33.470847 C39.6214223,34.4970894 41.917447,34.9362864 42.5525177,35.0555591 C42.7547261,35.0940742 42.8604682,35.2506197 42.898189,35.3052864 C42.9210689,35.336347 46.3715989,40.0600439 46.3715989,40.0600439 C46.3715989,40.0600439 46.5540194,40.2861652 46.4247792,40.5520439 C46.3456272,40.6874682 46.1984541,40.874453 45.8775177,40.8148167 C42.9952739,40.2600742 35.7757509,38.8834682 32.8291961,38.4579379 C28.9631184,37.9013318 25.3178004,38.4169379 23.6376767,40.39115 C23.5616166,40.4806045 23.4509276,40.6222409 23.2264576,40.6222409 C22.9988958,40.6222409 22.88697,40.4992409 22.807818,40.4048167 C21.1561396,38.44365 17.5912102,37.9031955 13.8735424,38.434953 C10.962235,38.8517864 3.58317138,40.2513773 0.649602473,40.8135742 C0.302694346,40.9030288 0.0726590106,40.7023773 0.0139134276,40.4781197 C-0.0473056537,40.2538621 0.112234982,40.0451348 0.112234982,40.0451348 L3.43352473,35.2201803 C3.43352473,35.2201803 3.5145318,35.0984227 3.73467314,35.052453" id="Fill-57"></path>
                </g>
            </g>
        </g>
    </g>
</svg>